# xmcd CD database file
#
# Track frame offsets:
#	150
#	17437
#	41474
#	53549
#	67799
#	84599
#	103049
#	126588
#	145750
#	161950
#	207437
#
# Disc length: 3364 seconds
#
# Revision: 1
# Processed by: cddbd v1.5.2PL0 Copyright (c) Steve Scherf et al.
# Submitted via: CDex 2.16
#
DISCID=910d220b
DTITLE=Ale Ravanello Blues Combo - Live at Mr. Jones
DYEAR=2010
DGENRE=Blues
TTITLE0=Mr. Freeze
TTITLE1=Reconsider Baby
TTITLE2=My Idea About You
TTITLE3=Up the Line
TTITLE4=Just a Little Bit
TTITLE5=One Kiss
TTITLE6=When I Lost You
TTITLE7=Who Told You
TTITLE8=Trouble no More
TTITLE9=Texas Flood
TTITLE10=Got My Mojo
EXTD=YEAR: 2010
EXTT0=
EXTT1=
EXTT2=
EXTT3=
EXTT4=
EXTT5=
EXTT6=
EXTT7=
EXTT8=
EXTT9=
EXTT10=
PLAYORDER=
